<?xml version="1.0" standalone="no"?><!DOCTYPE svg PUBLIC "-//W3C//DTD SVG 1.1//EN" "http://www.w3.org/Graphics/SVG/1.1/DTD/svg11.dtd"><svg t="1594878817765" class="icon" viewBox="0 0 1024 1024" version="1.1" xmlns="http://www.w3.org/2000/svg" p-id="2782" xmlns:xlink="http://www.w3.org/1999/xlink" width="200" height="200"><defs><style type="text/css"></style></defs><path d="M512 512m-512 0a512 512 0 1 0 1024 0 512 512 0 1 0-1024 0Z" fill="#4DB233" p-id="2783"></path><path d="M585.809109 511.493069c-12.87604 0-25.785875 12.977426-25.785875 28.928845 0 12.977426 12.909835 25.921056 25.785875 25.921056 19.330957 0 33.153267-12.977426 33.153267-25.921056 0-15.951419-13.788515-28.928845-33.153267-28.928845z m-84.691221-134.640792c20.277228 0 33.153267-13.957492 33.153267-34.910627 0-21.933201-12.87604-34.910627-33.153267-34.910627-19.330957 0-37.749439 12.977426-37.749439 34.910627 0 20.953135 18.418482 34.910627 37.749439 34.910627z m-96.654786 290.23472c-34.065743 0-58.905347-5.981782-91.247524-15.951419l-92.97109 50.693069 26.69835-85.806469C181.650165 566.34297 142.954455 503.551155 142.954455 426.700462c0-135.654653 117.844488-239.372673 261.474852-239.372673 127.070627 0 240.285149 81.784818 262.387327 197.500198A118.689373 118.689373 0 0 0 642.112211 381.887789c-125.211881 0-221.866667 101.724092-221.866666 224.40132a259.041584 259.041584 0 0 0 7.367392 59.851617 178.372013 178.372013 0 0 1-23.014653 0.980066z m383.915512 97.770033l18.418482 71.815181L736.739274 793.785875c-26.69835 5.981782-52.484224 14.937558-79.182574 14.937557-123.386931 0-220.954191-91.754455-220.954192-205.475907s97.601056-205.475908 220.954192-205.475908c116.932013 0 221.866667 91.788251 221.866666 205.475908 0 63.839472-39.608185 120.6833-91.247524 161.575709zM318.825611 307.031023c-19.330957 0-39.574389 12.977426-39.57439 34.910627 0 20.953135 20.277228 34.910627 39.57439 34.910627 18.418482 0 33.153267-13.957492 33.153267-34.910627 0-21.933201-14.734785-34.910627-33.153267-34.910627z m411.526336 204.462046c-13.82231 0-25.785875 12.977426-25.785874 28.928845a27.036304 27.036304 0 0 0 25.785874 25.921056c18.418482 0 32.206997-12.977426 32.206997-25.921056 0-15.951419-13.82231-28.928845-32.206997-28.928845z m0 0" fill="#FFFFFF" p-id="2784"></path></svg>